<?xml version="1.0" encoding="iso-8859-1"?>
<!-- Generator: Adobe Illustrator 19.0.0, SVG Export Plug-In . SVG Version: 6.00 Build 0)  -->
<svg xmlns="http://www.w3.org/2000/svg" xmlns:xlink="http://www.w3.org/1999/xlink" version="1.1" id="Layer_1" x="0px" y="0px" viewBox="0 0 512 512" style="enable-background:new 0 0 512 512;" xml:space="preserve" width="512px" height="512px">
<g>
	<g>
		<path d="M409.6,115.2H51.2C22.921,115.2,0,138.121,0,166.4v128c0,28.279,22.921,51.2,51.2,51.2h1.289    c5.931,29.21,31.744,51.2,62.711,51.2s56.781-21.99,62.711-51.2h156.177c5.931,29.21,31.744,51.2,62.711,51.2    c30.967,0,56.781-21.99,62.711-51.2h1.289c28.279,0,51.2-22.921,51.2-51.2v-76.8C512,161.135,466.065,115.2,409.6,115.2z     M281.6,140.8H384v76.8H281.6V140.8z M25.6,166.4c0-14.114,11.486-25.6,25.6-25.6H128v76.8H25.6V166.4z M115.2,371.2    c-21.171,0-38.4-17.229-38.4-38.4c0-21.171,17.229-38.4,38.4-38.4s38.4,17.229,38.4,38.4C153.6,353.971,136.371,371.2,115.2,371.2    z M256,320h-78.089c-5.931-29.21-31.744-51.2-62.711-51.2S58.419,290.79,52.489,320H51.2c-14.114,0-25.6-11.486-25.6-25.6v-51.2    H256V320z M256,217.6H153.6v-76.8H256V217.6z M396.8,371.2c-21.171,0-38.4-17.229-38.4-38.4c0-21.171,17.229-38.4,38.4-38.4    c21.171,0,38.4,17.229,38.4,38.4C435.2,353.971,417.971,371.2,396.8,371.2z M486.4,294.4c0,14.114-11.486,25.6-25.6,25.6h-1.289    c-5.931-29.21-31.744-51.2-62.711-51.2c-30.967,0-56.781,21.99-62.711,51.2H281.6v-76.8h204.8V294.4z M409.6,217.6v-76.8    c42.419,0,76.8,34.381,76.8,76.8H409.6z" fill="#c3d7d2"/>
	</g>
</g>
<g>
	<g>
		<circle cx="115.2" cy="332.8" r="12.8" fill="#c3d7d2"/>
	</g>
</g>
<g>
	<g>
		<circle cx="396.8" cy="332.8" r="12.8" fill="#c3d7d2"/>
	</g>
</g>
<g>
</g>
<g>
</g>
<g>
</g>
<g>
</g>
<g>
</g>
<g>
</g>
<g>
</g>
<g>
</g>
<g>
</g>
<g>
</g>
<g>
</g>
<g>
</g>
<g>
</g>
<g>
</g>
<g>
</g>
</svg>
