<?xml version="1.0" encoding="iso-8859-1"?>
<!-- Generator: Adobe Illustrator 19.0.0, SVG Export Plug-In . SVG Version: 6.00 Build 0)  -->
<svg xmlns="http://www.w3.org/2000/svg" xmlns:xlink="http://www.w3.org/1999/xlink" version="1.1" id="Layer_1" x="0px" y="0px" viewBox="0 0 512 512" style="enable-background:new 0 0 512 512;" xml:space="preserve" width="512px" height="512px">
<g>
	<g>
		<path d="M435.2,185.6h-25.6c0-58.94-43.46-102.4-115.2-102.4h-76.8c-71.74,0-115.2,43.46-115.2,102.4H76.8    C36.958,185.6,0,222.336,0,262.4V352c0,14.148,11.46,25.6,25.6,25.6h26.957c6.042,29.542,32.503,51.081,62.643,51.2    c30.771-0.785,56.388-20.651,62.643-51.2h156.314c6.784,29.764,31.949,50.739,62.643,51.2c30.839-1.382,56.158-20.386,62.643-51.2    H486.4c14.14,0,25.6-11.452,25.6-25.6v-89.6C512,222.66,474.94,185.6,435.2,185.6z M129.229,171.273    c2.577-9.233,4.966-18.85,10.24-26.854c5.393-7.808,11.861-14.839,19.891-20.045c17.434-11.315,37.683-15.394,58.24-15.573h76.8    l11.563,0.435c17.041,2.799,29.653,3.208,44.911,13.73c21.794,15.061,32.495,36.702,33.126,62.635H268.8v-38.4    c0-7.066-5.734-12.8-12.8-12.8c-7.066,0-12.8,5.734-12.8,12.8v38.4H128C128.094,180.813,127.932,175.881,129.229,171.273z     M115.2,403.2c-21.205,0-38.4-17.186-38.4-38.4c0-21.214,17.195-38.4,38.4-38.4s38.4,17.186,38.4,38.4    C153.6,386.014,136.405,403.2,115.2,403.2z M396.8,403.2c-21.205,0-38.4-17.186-38.4-38.4c0-21.214,17.195-38.4,38.4-38.4    c21.205,0,38.4,17.186,38.4,38.4C435.2,386.014,418.005,403.2,396.8,403.2z M486.4,351.983h-26.974    c-5.239-23.168-20.548-40.832-43.503-48.077c-5.803-1.826-12.544-3.183-18.739-3.183c-30.805,0.017-56.559,21.231-63.036,51.268    H177.835c-4.847-23.714-23.134-43.145-46.643-49.186c-4.762-1.212-7.808-1.562-12.706-1.92c-4.275-0.333-8.832,0.017-13.03,0.657    C79.411,305.502,57.574,326.067,52.557,352H25.6v-89.6c0-26.035,25.6-51.2,51.2-51.2h358.4    c17.937,0.546,33.365,11.238,43.162,25.822l0.094,0.145c-2.219-0.452-0.623-0.171-4.855-0.384c-21.205,0-38.4,17.186-38.4,38.4    s17.195,38.4,38.4,38.4c4.309-0.222,8.832-0.367,12.8-2.304V351.983z M473.6,288c-7.066,0-12.8-5.734-12.8-12.8    s5.734-12.8,12.8-12.8c7.066,0,12.8,5.734,12.8,12.8S480.666,288,473.6,288z" fill="#c3d7d2"/>
	</g>
</g>
<g>
</g>
<g>
</g>
<g>
</g>
<g>
</g>
<g>
</g>
<g>
</g>
<g>
</g>
<g>
</g>
<g>
</g>
<g>
</g>
<g>
</g>
<g>
</g>
<g>
</g>
<g>
</g>
<g>
</g>
</svg>
