<?xml version="1.0" encoding="iso-8859-1"?>
<!-- Generator: Adobe Illustrator 19.0.0, SVG Export Plug-In . SVG Version: 6.00 Build 0)  -->
<svg xmlns="http://www.w3.org/2000/svg" xmlns:xlink="http://www.w3.org/1999/xlink" version="1.1" id="Layer_1" x="0px" y="0px" viewBox="0 0 512 512" style="enable-background:new 0 0 512 512;" xml:space="preserve" width="512px" height="512px">
<g>
	<g>
		<path d="M417.468,408.013C427.691,404.659,435.2,395.349,435.2,384V102.4C435.2,45.935,389.265,0,332.8,0H179.2    C122.735,0,76.8,45.935,76.8,102.4V384c0,11.349,7.509,20.659,17.732,24.013L0,512h34.586l46.549-51.2h349.739l46.549,51.2H512    L417.468,408.013z M102.4,128h140.8v76.8H102.4V128z M102.4,281.6h38.4c7.057,0,12.8,5.743,12.8,12.8s-5.743,12.8-12.8,12.8h-38.4    V281.6z M104.405,435.2l23.27-25.6h256.649l23.27,25.6H104.405z M409.6,307.2h-38.4c-7.057,0-12.8-5.743-12.8-12.8    s5.743-12.8,12.8-12.8h38.4V307.2z M409.6,256h-38.4c-21.205,0-38.4,17.195-38.4,38.4s17.195,38.4,38.4,38.4h38.4V384H102.4v-51.2    h38.4c21.205,0,38.4-17.195,38.4-38.4S162.005,256,140.8,256h-38.4v-25.6h307.2V256z M409.6,204.8H268.8V128h140.8V204.8z     M102.4,102.4c0-42.419,34.381-76.8,76.8-76.8h153.6c42.419,0,76.8,34.381,76.8,76.8H102.4z" fill="#c3d7d2"/>
	</g>
</g>
<g>
</g>
<g>
</g>
<g>
</g>
<g>
</g>
<g>
</g>
<g>
</g>
<g>
</g>
<g>
</g>
<g>
</g>
<g>
</g>
<g>
</g>
<g>
</g>
<g>
</g>
<g>
</g>
<g>
</g>
</svg>
