<?xml version="1.0" encoding="iso-8859-1"?>
<!-- Generator: Adobe Illustrator 19.0.0, SVG Export Plug-In . SVG Version: 6.00 Build 0)  -->
<svg xmlns="http://www.w3.org/2000/svg" xmlns:xlink="http://www.w3.org/1999/xlink" version="1.1" id="Capa_1" x="0px" y="0px" viewBox="0 0 511.999 511.999" style="enable-background:new 0 0 511.999 511.999;" xml:space="preserve" width="512px" height="512px">
<g>
	<g>
		<path d="M429.173,86.049c-4.156,0-7.53,3.383-7.53,7.53v150.594c0,4.156,3.373,7.53,7.53,7.53c4.146,0,7.53-3.373,7.53-7.53    V93.579C436.702,89.433,433.319,86.049,429.173,86.049z" fill="#779a91"/>
	</g>
</g>
<g>
	<g>
		<path d="M434.494,2.209C433.098,0.803,431.15,0,429.173,0H82.816c-1.988,0-3.925,0.803-5.331,2.209    c-1.396,1.396-2.199,3.333-2.199,5.321v236.614c0,4.156,3.373,7.53,7.53,7.53c4.146,0,7.53-3.373,7.53-7.53V15.059h331.297V63.46    c0,4.156,3.373,7.53,7.53,7.53c4.146,0,7.53-3.373,7.53-7.53v-0.01V7.53C436.702,5.542,435.899,3.604,434.494,2.209z" fill="#779a91"/>
	</g>
</g>
<g>
	<g>
		<path d="M496.93,233.854c0.146-2.504-0.955-5.023-3.15-6.582l-30.029-21.324c-3.391-2.407-8.092-1.611-10.499,1.78    c-2.408,3.39-1.611,8.091,1.78,10.499l21.369,15.174L298.457,359.695l-38.11-27.015c-2.609-1.849-6.1-1.849-8.709,0    l-38.107,27.015L35.589,233.408l21.467-15.241c3.39-2.407,4.188-7.108,1.781-10.498c-2.408-3.39-7.107-4.189-10.498-1.78    L18.22,227.272c-0.249,0.177-0.479,0.369-0.7,0.569c-0.083,0.075-0.161,0.154-0.24,0.232c-0.138,0.137-0.27,0.277-0.396,0.422    c-0.079,0.091-0.159,0.182-0.233,0.276c-0.152,0.193-0.291,0.393-0.422,0.597c-0.075,0.118-0.143,0.24-0.212,0.362    c-0.091,0.162-0.179,0.325-0.256,0.494c-0.056,0.12-0.107,0.241-0.157,0.363c-0.071,0.176-0.133,0.354-0.19,0.534    c-0.032,0.101-0.069,0.2-0.097,0.302c-0.075,0.276-0.132,0.557-0.175,0.839c-0.014,0.088-0.022,0.178-0.032,0.268    c-0.029,0.246-0.046,0.493-0.051,0.741c-0.001,0.046-0.009,0.091-0.009,0.139V420.84c0,4.156,3.373,7.53,7.53,7.53    s7.53-3.373,7.53-7.53V247.988l170.406,120.933L33.973,486.985c-2.503-3.698-3.856-8.058-3.864-12.635v-23.392    c0-4.146-3.373-7.53-7.53-7.53c-4.156,0-7.53,3.383-7.53,7.53v23.392c0,10.06,3.915,19.517,11.023,26.625    s16.565,11.023,26.625,11.023h406.604c5.07,0,10.01-0.994,14.658-2.962c4.498-1.897,8.524-4.608,11.967-8.052    c3.454-3.454,6.164-7.479,8.062-11.977c1.968-4.648,2.962-9.578,2.962-14.658L496.93,233.854z M460.925,496.766H51.187    c-1.387-0.095-2.745-0.312-4.062-0.646l169.922-120.459c0.6-0.311,1.153-0.711,1.654-1.173l37.291-26.436l37.604,26.656    c0.29,0.243,0.599,0.457,0.921,0.653l170.361,120.763C463.595,496.451,462.274,496.666,460.925,496.766z M478.035,486.991    l-166.562-118.07l170.408-120.933l0.01,226.363C481.891,478.929,480.537,483.29,478.035,486.991z" fill="#779a91"/>
	</g>
</g>
<g>
	<g>
		<path d="M399.052,45.174c-4.151,0-7.529-3.377-7.529-7.53c0-4.158-3.371-7.53-7.53-7.53H127.991c-4.158,0-7.53,3.371-7.53,7.53    c0,4.152-3.377,7.53-7.529,7.53c-4.158,0-7.53,3.371-7.53,7.53v212.824c0,4.158,3.371,7.53,7.53,7.53    c4.158,0,7.53-3.371,7.53-7.53V58.944c6.409-2.273,11.496-7.36,13.768-13.769h243.524c2.272,6.409,7.36,11.496,13.768,13.769    v206.585c-0.001,4.157,3.37,7.529,7.529,7.529c4.158,0,7.53-3.371,7.53-7.53V52.704C406.582,48.546,403.21,45.174,399.052,45.174z    " fill="#779a91"/>
	</g>
</g>
<g>
	<g>
		<path d="M317.464,104.409c-8.919-8.919-20.775-13.831-33.386-13.831c-10.241,0-19.988,3.24-28.07,9.235    c-8.078-5.995-17.825-9.235-28.071-9.235c-12.613,0-24.476,4.911-33.403,13.831c-18.416,18.416-18.416,48.38,0.001,66.797    l56.148,56.133c1.471,1.47,3.396,2.205,5.324,2.205c1.927,0,3.854-0.735,5.324-2.206l56.13-56.131    c8.927-8.919,13.844-20.781,13.844-33.401C331.306,125.188,326.389,113.326,317.464,104.409z M306.816,160.556l-50.809,50.809    l-50.823-50.809c-12.544-12.544-12.544-32.955-0.003-45.497c6.082-6.076,14.164-9.422,22.757-9.422    c8.593,0,16.67,3.345,22.744,9.42c2.939,2.94,7.705,2.941,10.646,0.002c6.082-6.076,14.161-9.422,22.75-9.422    c8.588,0,16.663,3.345,22.74,9.422c6.08,6.074,9.428,14.153,9.428,22.747C316.246,146.402,312.898,154.48,306.816,160.556z" fill="#779a91"/>
	</g>
</g>
<g>
	<g>
		<path d="M323.772,255.998H188.227c-4.158,0-7.53,3.371-7.53,7.53s3.371,7.53,7.53,7.53h135.545c4.158,0,7.53-3.371,7.53-7.53    S327.93,255.998,323.772,255.998z" fill="#779a91"/>
	</g>
</g>
<g>
	<g>
		<path d="M293.64,286.117h-75.28c-4.158,0-7.53,3.371-7.53,7.53s3.371,7.53,7.53,7.53h75.28c4.158,0,7.53-3.371,7.53-7.53    S297.798,286.117,293.64,286.117z" fill="#779a91"/>
	</g>
</g>
<g>
</g>
<g>
</g>
<g>
</g>
<g>
</g>
<g>
</g>
<g>
</g>
<g>
</g>
<g>
</g>
<g>
</g>
<g>
</g>
<g>
</g>
<g>
</g>
<g>
</g>
<g>
</g>
<g>
</g>
</svg>
